<svg width="124" height="30" viewBox="0 0 124 30" fill="none" xmlns="http://www.w3.org/2000/svg">
<rect x="0.334473" y="0.961914" width="122.811" height="28.8862" rx="14.4431" fill="black"/>
<path d="M11.9399 11.9619V19.9619H13.8228V15.0205H13.8892L15.811 19.9111H17.0142L18.936 15.0479H19.0024V19.9619H20.8853V11.9619H18.4907L16.4595 16.915H16.3657L14.3345 11.9619H11.9399ZM30.7421 15.9619C30.7421 13.3174 29.0702 11.8525 26.9218 11.8525C24.7655 11.8525 23.1054 13.3174 23.1054 15.9619C23.1054 18.5947 24.7655 20.0713 26.9218 20.0713C29.0702 20.0713 30.7421 18.6064 30.7421 15.9619ZM28.7655 15.9619C28.7655 17.5283 28.078 18.376 26.9218 18.376C25.7694 18.376 25.078 17.5283 25.078 15.9619C25.078 14.3955 25.7694 13.5479 26.9218 13.5479C28.078 13.5479 28.7655 14.3955 28.7655 15.9619ZM37.2952 14.3604H39.1468C39.1312 12.8643 37.9397 11.8525 36.0804 11.8525C34.2522 11.8525 32.9358 12.8486 32.9476 14.3369C32.9437 15.5518 33.7952 16.2354 35.178 16.5518L36.014 16.7471C36.8929 16.9502 37.2874 17.1885 37.2952 17.6377C37.2874 18.126 36.8304 18.4658 36.053 18.4658C35.1976 18.4658 34.6351 18.0674 34.5921 17.2979H32.7405C32.764 19.1689 34.0647 20.0635 36.0765 20.0635C38.0687 20.0635 39.2483 19.1611 39.2562 17.6416C39.2483 16.3643 38.3851 15.583 36.8069 15.2354L36.1194 15.0791C35.3929 14.9229 34.9319 14.6807 34.9476 14.2041C34.9515 13.7666 35.3265 13.4502 36.0765 13.4502C36.8304 13.4502 37.2444 13.79 37.2952 14.3604ZM41.071 13.5322H43.5007V19.9619H45.4069V13.5322H47.8327V11.9619H41.071V13.5322ZM53.3403 19.9619H55.2739V17.4775H56.5864C58.4185 17.4775 59.563 16.3916 59.563 14.7314C59.563 13.0869 58.4419 11.9619 56.645 11.9619H53.3403V19.9619ZM55.2739 15.9541V13.5205H56.2271C57.0942 13.5205 57.5591 13.9893 57.5591 14.7314C57.5591 15.4697 57.0942 15.9541 56.2271 15.9541H55.2739ZM69.1669 15.9619C69.1669 13.3174 67.495 11.8525 65.3466 11.8525C63.1903 11.8525 61.5302 13.3174 61.5302 15.9619C61.5302 18.5947 63.1903 20.0713 65.3466 20.0713C67.495 20.0713 69.1669 18.6064 69.1669 15.9619ZM67.1903 15.9619C67.1903 17.5283 66.5028 18.376 65.3466 18.376C64.1942 18.376 63.5028 17.5283 63.5028 15.9619C63.5028 14.3955 64.1942 13.5479 65.3466 13.5479C66.5028 13.5479 67.1903 14.3955 67.1903 15.9619ZM71.3958 19.9619H73.3294V17.4775H74.6419C76.4739 17.4775 77.6185 16.3916 77.6185 14.7314C77.6185 13.0869 76.4974 11.9619 74.7005 11.9619H71.3958V19.9619ZM73.3294 15.9541V13.5205H74.2825C75.1497 13.5205 75.6146 13.9893 75.6146 14.7314C75.6146 15.4697 75.1497 15.9541 74.2825 15.9541H73.3294ZM84.5114 11.9619V16.9541C84.5114 17.7861 83.9216 18.3838 83.0583 18.3838C82.1911 18.3838 81.6052 17.7861 81.6052 16.9541V11.9619H79.6716V17.1221C79.6716 18.9111 81.0231 20.0635 83.0583 20.0635C85.0778 20.0635 86.4411 18.9111 86.4411 17.1221V11.9619H84.5114ZM88.753 19.9619H94.0147V18.3916H90.6866V11.9619H88.753V19.9619ZM97.9429 19.9619L98.4702 18.2822H101.232L101.759 19.9619H103.837L101.138 11.9619H98.564L95.8647 19.9619H97.9429ZM98.9312 16.8135L99.8179 13.9775H99.8804L100.771 16.8135H98.9312ZM105.799 19.9619H107.732V17.2236H108.725L110.185 19.9619H112.295L110.635 16.915C111.514 16.5166 112.021 15.7314 112.021 14.626C112.021 12.9814 110.9 11.9619 109.103 11.9619H105.799V19.9619ZM107.732 15.7002V13.5205H108.685C109.553 13.5205 110.017 13.8838 110.017 14.626C110.017 15.3682 109.553 15.7002 108.685 15.7002H107.732Z" fill="white"/>
</svg>
